<svg xmlns="http://www.w3.org/2000/svg" viewBox="0 0 192 192">
  <rect width="192" height="192" rx="24" fill="#1a4a8a"/>
  <rect x="28" y="36" width="136" height="120" rx="10" fill="#d4a840"/>
  <rect x="36" y="44" width="120" height="104" rx="8" fill="#f0ede6"/>
  <rect x="36" y="44" width="60" height="104" rx="8" fill="#e8e0d0"/>
  <rect x="92" y="44" width="4" height="104" fill="#1a4a8a" opacity="0.15"/>
  <rect x="50" y="64" width="32" height="4" rx="2" fill="#1a4a8a" opacity="0.5"/>
  <rect x="50" y="74" width="28" height="4" rx="2" fill="#1a4a8a" opacity="0.4"/>
  <rect x="50" y="84" width="32" height="4" rx="2" fill="#1a4a8a" opacity="0.5"/>
  <rect x="50" y="94" width="24" height="4" rx="2" fill="#1a4a8a" opacity="0.3"/>
  <rect x="102" y="64" width="32" height="4" rx="2" fill="#d4a840" opacity="0.7"/>
  <rect x="102" y="74" width="26" height="4" rx="2" fill="#d4a840" opacity="0.6"/>
  <rect x="102" y="84" width="30" height="4" rx="2" fill="#d4a840" opacity="0.7"/>
  <rect x="102" y="94" width="22" height="4" rx="2" fill="#d4a840" opacity="0.5"/>
  <text x="96" y="148" font-size="28" font-family="system-ui,sans-serif" font-weight="700"
        text-anchor="middle" fill="#1a4a8a">CTI</text>
</svg>
